<?xml version="1.0" encoding="utf-8"?>
<svg xmlns="http://www.w3.org/2000/svg" xmlns:xlink="http://www.w3.org/1999/xlink">
<symbol id="logo" viewBox="0 0 512 512">
<path d="M1728 5070 c-91 -95 -138 -234 -118 -355 5 -33 10 -63 10 -67 0 -5 -26 -8 -58 -8 -78 0 -141 -23 -197 -72 -60 -53 -92 -111 -111 -199 -33 -160 30 -361 151 -480 l54 -53 -58 -38 c-70 -45 -181 -160 -236 -243 -134 -204 -148 -445 -36 -626 l29 -47 -41 -48 c-70 -84 -166 -239 -221 -356 -42 -88 -61 -117 -85 -131 -120 -70 -175 -203 -151 -366 14 -88 73 -340 131 -556 71 -262 227 -808 249 -875 91 -268 260 -436 491 -489 224 -52 794 -75 1261 -51 260 14 619 46 726 66 105 19 224 61 297 105 82 49 175 143 223 224 97 167 228 633 378 1345 70 336 63 424 -47 544 -31 34 -70 96 -103 163 -84 171 -194 330 -300 433 -25 24 -46 49 -46 54 0 5 9 29 20 52 121 250 0 654 -253 840 -32 24 -78 70 -102 104 -44 59 -134 134 -206 171 -28 14 -38 26 -43 52 -10 54 -70 168 -122 233 -139 172 -418 359 -556 372 -39 3 -63 1 -73 -8 -19 -16 -19 -82 0 -135 41 -115 3 -238 -104 -337 -34 -32 -71 -62 -81 -68 -18 -10 -19 -7 -13 54 16 172 -73 353 -224 458 -63 43 -119 60 -198 61 -84 0 -155 -30 -221 -94 -47 -46 -50 -44 -60 45 -7 61 15 161 48 215 13 20 40 55 62 79 32 35 38 47 29 60 -20 32 -44 25 -95 -28z m364 -393 c64 -37 135 -118 170 -194 41 -86 49 -185 23 -280 l-18 -66 -81 -37 c-94 -43 -194 -76 -361 -120 -66 -17 -152 -45 -192 -61 l-71 -30 -49 25 c-95 48 -159 146 -189 288 -37 174 40 327 181 359 50 11 66 10 132 -6 l76 -19 18 25 c60 78 84 100 131 124 46 23 62 26 120 22 48 -3 79 -11 110 -30z m680 -41 c107 -47 237 -136 319 -218 124 -126 189 -301 144 -389 -66 -126 -177 -197 -585 -374 -265 -115 -342 -154 -425 -215 -133 -98 -274 -268 -316 -379 -21 -57 -29 -156 -15 -198 6 -19 0 -26 -45 -48 -104 -53 -233 -67 -367 -39 -191 39 -323 173 -355 358 -29 170 85 418 251 549 134 105 270 166 511 227 566 145 861 403 798 698 -9 43 -10 62 -3 62 6 0 46 -15 88 -34z m689 -710 c28 -28 63 -75 77 -105 21 -45 24 -63 19 -115 -7 -77 -46 -191 -89 -264 -19 -33 -98 -121 -188 -212 -168 -168 -201 -216 -208 -308 -5 -63 -17 -73 -147 -123 -271 -106 -612 -136 -787 -69 -122 46 -163 99 -162 210 0 54 6 75 33 126 80 150 245 301 431 394 36 18 167 81 291 140 353 166 507 267 575 374 l28 45 38 -21 c20 -12 60 -44 89 -72z m352 -383 c97 -186 118 -372 58 -509 -48 -108 -169 -189 -326 -219 -140 -27 -235 -16 -347 41 -43 22 -48 28 -48 57 1 65 37 116 198 281 95 96 173 186 196 223 45 76 93 202 102 274 l7 53 61 -65 c34 -35 78 -97 99 -136z m81 -734 c93 -103 211 -279 250 -373 l14 -34 -66 -4 c-91 -5 -167 -42 -248 -119 -35 -34 -64 -57 -64 -51 0 6 -24 37 -54 69 -87 95 -210 143 -361 143 -134 0 -258 -46 -340 -126 l-42 -40 -49 45 c-90 81 -221 126 -369 125 -146 -1 -286 -54 -363 -138 l-38 -42 -41 46 c-161 180 -515 172 -681 -16 l-46 -52 -37 33 c-87 78 -211 125 -331 125 l-67 0 30 67 c52 115 192 327 225 340 6 2 34 -11 61 -30 61 -44 106 -63 198 -82 145 -30 308 -14 414 40 47 23 49 24 65 6 28 -31 128 -79 197 -96 242 -57 638 -1 891 126 l77 39 63 -30 c104 -50 195 -65 304 -51 120 14 239 52 301 95 26 19 51 34 55 35 3 1 27 -22 52 -50z m-1199 -453 c100 -26 171 -79 210 -157 l25 -48 -26 -603 c-14 -332 -31 -792 -37 -1023 l-12 -420 -247 -3 -248 -2 0 22 c0 13 -16 223 -35 468 -58 752 -95 1344 -95 1521 0 90 2 97 30 135 32 44 121 97 186 113 59 14 193 12 249 -3z m834 -32 c93 -27 191 -128 191 -195 0 -80 -119 -1064 -176 -1454 -36 -247 -68 -467 -71 -488 -3 -21 -9 -40 -13 -42 -11 -7 -371 -35 -446 -35 l-64 0 5 83 c3 45 10 240 15 432 9 308 27 630 74 1335 14 211 20 231 78 287 92 88 262 121 407 77z m-1611 1 c61 -19 126 -66 165 -121 24 -35 30 -57 42 -164 24 -211 106 -1351 131 -1814 l7 -129 -114 7 c-125 8 -332 26 -334 29 -9 13 -345 1959 -345 1997 0 33 46 98 96 136 85 65 242 91 352 59z m2334 -38 c92 -54 133 -131 131 -247 -3 -183 -255 -1226 -360 -1489 -70 -176 -186 -292 -356 -356 -94 -35 -100 -34 -92 18 3 23 33 238 66 477 33 239 89 656 125 925 35 270 66 500 69 511 6 29 87 118 132 145 92 57 205 63 285 16z m-3096 -8 c63 -24 124 -68 166 -120 28 -35 33 -59 118 -550 97 -566 134 -768 216 -1183 30 -153 54 -280 52 -281 -9 -9 -219 35 -263 54 -116 51 -217 159 -287 309 -41 85 -129 382 -262 882 -137 512 -165 672 -134 761 47 137 219 193 394 128z" fill="currentColor"/>
</symbol></svg>